<svg xmlns="http://www.w3.org/2000/svg" enable-background="new 0 0 24 24" viewBox="0 0 24 24" width="24" height="24"><path fill="#b2b1ff" d="M19 10a6.981 6.981 0 0 0-4-6.32 6.446 6.446 0 0 0-2-.6 6.06 6.06 0 0 0-2 0c-.696.1-1.372.313-2 .63a7.36 7.36 0 0 0-4 6.58V11h14v-1z"/><path fill="#6563ff" d="M11 3.08V7a1 1 0 1 1-2 0V3.71a6.49 6.49 0 0 1 2-.63zm4 .6V7a1 1 0 1 1-2 0V3.08c.695.09 1.37.293 2 .6z"/><path fill="#8c8aff" d="M5 11h14a2 2 0 1 1 0 4H5a2 2 0 1 1 0-4z"/><path fill="#d8d8ff" d="M5 14.999a6.999 6.999 0 0 0 7.21 7 7.173 7.173 0 0 0 6.78-7H5z"/></svg>